<svg xmlns="http://www.w3.org/2000/svg" width="20" height="20" viewBox="0 0 20 20">
  <g id="add_1_" data-name="add (1)" transform="translate(0 -0.001)">
    <g id="Group_1" data-name="Group 1" transform="translate(0 0.001)">
      <path id="Path_9" data-name="Path 9" d="M18.915,8.606H11.4V1.086A1.349,1.349,0,0,0,10,0,1.349,1.349,0,0,0,8.6,1.086V8.606H1.085A1.349,1.349,0,0,0,0,10a1.349,1.349,0,0,0,1.085,1.4H8.6v7.519A1.349,1.349,0,0,0,10,20a1.349,1.349,0,0,0,1.4-1.085V11.4h7.519A1.349,1.349,0,0,0,20,10,1.349,1.349,0,0,0,18.915,8.606Z" transform="translate(0 -0.001)" fill="#fff"/>
    </g>
  </g>
</svg>
