<svg xmlns="http://www.w3.org/2000/svg" width="26.286" height="23" viewBox="0 0 26.286 23">
  <path id="object-group-solid" d="M24.643,36.929V35.286H25.67a.616.616,0,0,0,.616-.616V32.616A.616.616,0,0,0,25.67,32H23.616a.616.616,0,0,0-.616.616v1.027H3.286V32.616A.616.616,0,0,0,2.67,32H.616A.616.616,0,0,0,0,32.616V34.67a.616.616,0,0,0,.616.616H1.643V51.714H.616A.616.616,0,0,0,0,52.331v2.054A.616.616,0,0,0,.616,55H2.67a.616.616,0,0,0,.616-.616V53.357H23v1.027a.616.616,0,0,0,.616.616H25.67a.616.616,0,0,0,.616-.616V52.331a.616.616,0,0,0-.616-.616H24.643Zm-19.714,7.6V37.545a.616.616,0,0,1,.616-.616H14.17a.616.616,0,0,1,.616.616v6.982a.616.616,0,0,1-.616.616H5.545A.616.616,0,0,1,4.929,44.527Zm16.429,4.929a.616.616,0,0,1-.616.616H12.116a.616.616,0,0,1-.616-.616v-2.67h3.7a1.232,1.232,0,0,0,1.232-1.232v-3.7h4.313a.616.616,0,0,1,.616.616Z" transform="translate(0 -32)" fill="#fff"/>
</svg>
