<svg xmlns="http://www.w3.org/2000/svg" width="492.001" height="491.48" viewBox="0 0 492.001 491.48">
  <g id="move" transform="translate(0 -0.26)">
    <g id="Group_4" data-name="Group 4">
      <path id="Path_24" data-name="Path 24" d="M487.97,237.06l-58.82-58.82a14.2,14.2,0,0,0-19.592,0l-7.436,7.432a13.713,13.713,0,0,0,0,19.46l21.872,21.74H265.206V68.4l21.808,22.132a14.009,14.009,0,0,0,19.428,0L313.8,83.1a13.873,13.873,0,0,0-.044-19.6L254.846,4.444a13.95,13.95,0,0,0-9.8-4.184h-.4a13.887,13.887,0,0,0-9.784,4.184L177.166,62.216a13.94,13.94,0,0,0,0,19.652l7.432,7.444a14.506,14.506,0,0,0,19.828,0l22.368-22.132V226.872H67.814l22.14-22.008a13.751,13.751,0,0,0,0-19.492l-7.436-7.42a14.219,14.219,0,0,0-19.584.008l-58.9,58.9a14.392,14.392,0,0,0,0,19.976l57.68,57.692a14.218,14.218,0,0,0,19.6,0l7.44-7.44a13.925,13.925,0,0,0,0-19.624l-22.14-22.172H226.79V425.32l-23.336-23.088a14.349,14.349,0,0,0-19.7,0l-7.5,7.44a13.862,13.862,0,0,0-.044,19.584l58.448,58.456a13.819,13.819,0,0,0,9.9,4.028,1.544,1.544,0,0,1,.272,0,13.763,13.763,0,0,0,9.792-4.028L313.45,428.88a13.882,13.882,0,0,0,0-19.588l-7.44-7.44a13.806,13.806,0,0,0-19.264,0l-21.54,21.868V265.284H425.59l-23.1,23.132a13.911,13.911,0,0,0,0,19.62l7.44,7.444a14.2,14.2,0,0,0,19.584,0l58.452-58.452a14.387,14.387,0,0,0,0-19.968Z" fill="#fff"/>
    </g>
  </g>
</svg>
