<svg xmlns="http://www.w3.org/2000/svg" width="20.516" height="22.542" viewBox="0 0 20.516 22.542">
  <g id="root-directory" transform="translate(-30)">
    <g id="Group_2" data-name="Group 2" transform="translate(30)">
      <path id="Path_14" data-name="Path 14" d="M50.516,16.6V5.283a2.686,2.686,0,0,0-2.723-2.642H40.54L37.817,0H30V16.6h9.577V19.02H30v3.522h1.362v-2.2h3.427v2.2H36.15v-2.2h3.427v2.2h1.362v-2.2h3.427v2.2h1.362v-2.2h3.427v2.2h1.362V19.02H40.939V16.6ZM31.362,1.321h5.891l1.362,1.321H32.723A2.771,2.771,0,0,0,31.362,3Zm0,13.957V5.283a1.343,1.343,0,0,1,1.362-1.321H47.792a1.343,1.343,0,0,1,1.362,1.321v9.994Z" transform="translate(-30)" fill="#f9ce3e"/>
    </g>
  </g>
</svg>
