<svg xmlns="http://www.w3.org/2000/svg" width="18.494" height="22" viewBox="0 0 18.494 22">
  <g id="trash" transform="translate(0 0)">
    <path id="Path_10" data-name="Path 10" d="M18.437,4.917l-.5-1.456a1.392,1.392,0,0,0-1.324-.927h-4.2V1.2A1.224,1.224,0,0,0,11.171,0H7.323a1.224,1.224,0,0,0-1.24,1.2V2.534h-4.2a1.392,1.392,0,0,0-1.324.927l-.5,1.456A1.067,1.067,0,0,0,.211,5.9a1.135,1.135,0,0,0,.91.453h.523l1.15,13.819A2.035,2.035,0,0,0,4.833,22h9.06a2.035,2.035,0,0,0,2.039-1.829l1.15-13.819h.289a1.135,1.135,0,0,0,.91-.453,1.067,1.067,0,0,0,.154-.982ZM7.41,1.289h3.674V2.534H7.41Zm7.2,18.778a.716.716,0,0,1-.717.644H4.833a.716.716,0,0,1-.717-.644L2.975,6.352H15.752Zm-13.2-15,.41-1.194a.069.069,0,0,1,.066-.046H16.613a.069.069,0,0,1,.066.046l.41,1.194Zm0,0" transform="translate(0 0)" fill="#c90000"/>
    <path id="Path_11" data-name="Path 11" d="M268.925,178.483h.035a.655.655,0,0,0,.662-.611l.623-11.619a.664.664,0,0,0-1.325-.067l-.623,11.619a.652.652,0,0,0,.628.677Zm0,0" transform="translate(-256.431 -158.462)" fill="#c90000"/>
    <path id="Path_12" data-name="Path 12" d="M106.447,177.877a.655.655,0,0,0,.662.609h.037a.652.652,0,0,0,.626-.679l-.653-11.619a.664.664,0,0,0-1.325.07Zm0,0" transform="translate(-101.115 -158.465)" fill="#c90000"/>
    <path id="Path_13" data-name="Path 13" d="M194.917,178.487a.654.654,0,0,0,.663-.645V166.223a.664.664,0,0,0-1.327,0v11.619A.654.654,0,0,0,194.917,178.487Zm0,0" transform="translate(-185.663 -158.465)" fill="#c90000"/>
  </g>
</svg>
